<svg width="200" height="200" xmlns="http://www.w3.org/2000/svg">
  <!-- Heart shape -->
  <path d="M100 40 
           C 60 0, 20 40, 20 80 
           C 20 120, 100 160, 100 160 
           C 100 160, 180 120, 180 80 
           C 180 40, 140 0, 100 40" 
        fill="none" stroke="blue" stroke-width="4"/>

  <!-- ECG line running through the heart -->
  <path d="M20 140 
           L 60 140 
           L 70 120 
           L 80 160 
           L 90 140 
           L 130 140 
           A 20 20 0 0 1 150 160 
           L 170 160 
           A 20 20 0 0 0 190 140 
           L 190 140
           L 50 140 
           L 60 120 
           L 70 160 
           L 80 140 
           L 90 140 
           C 90 140, 100 180, 110 140 
           C 120 100, 140 80, 160 100 
           C 180 120, 180 140, 180 140 
           A 10 10 0 0 1 190 150 
           A 10 10 0 0 1 180 160 
           L 180 160" 
        fill="none" stroke="blue" stroke-width="4"/>
</svg>
</svg>